PathFileType  4	(X/Y/Z) C:\Users\antoi\Documents\MyRepositories\mobilecap\ResultsAnalysis
DataRate	CameraRate	NumFrames	NumMarkers	Units	OrigDataRate	OrigDataStartFrame	OrigNumFrames
100.0	100.0	4	51	mm	100.0	692	1383
Frame#	Time	r_knee			r_shank_antsup			r_ankle			r_calc			r_5meta			r_toe			L_knee			L_shank_antsup			L_ankle			L_calc			L_5meta			L_toe			r_sh2			r_sh3			r_sh4			L_sh2			L_sh3			r_thigh1			r_thigh2			r_thigh3			r_thigh4			r_thigh5			L_thigh1			L_thigh2			L_thigh3			L_thigh4			r.ASIS			r.PSIS			L.ASIS			L.PSIS			C7			R_Shoulder			L_Shoulder			R_Sternum			L_Sternum			R_humerus			R_elbow_med			R_elbow_lat			R_forearm			R_wrist_radius			R_wrist_ulna			L_humerus			L_elbow_med			L_elbow_lat			L_forearm			L_wrist_radius			L_wrist_ulna			R_HJC			L_HJC			R_HJC_reg			L_HJC_reg			
		X1	Y1	Z1	X2	Y2	Z2	X3	Y3	Z3	X4	Y4	Z4	X5	Y5	Z5	X6	Y6	Z6	X7	Y7	Z7	X8	Y8	Z8	X9	Y9	Z9	X10	Y10	Z10	X11	Y11	Z11	X12	Y12	Z12	X13	Y13	Z13	X14	Y14	Z14	X15	Y15	Z15	X16	Y16	Z16	X17	Y17	Z17	X18	Y18	Z18	X19	Y19	Z19	X20	Y20	Z20	X21	Y21	Z21	X22	Y22	Z22	X23	Y23	Z23	X24	Y24	Z24	X25	Y25	Z25	X26	Y26	Z26	X27	Y27	Z27	X28	Y28	Z28	X29	Y29	Z29	X30	Y30	Z30	X31	Y31	Z31	X32	Y32	Z32	X33	Y33	Z33	X34	Y34	Z34	X35	Y35	Z35	X36	Y36	Z36	X37	Y37	Z37	X38	Y38	Z38	X39	Y39	Z39	X40	Y40	Z40	X41	Y41	Z41	X42	Y42	Z42	X43	Y43	Z43	X44	Y44	Z44	X45	Y45	Z45	X46	Y46	Z46	X47	Y47	Z47	X48	Y48	Z48	X49	Y49	Z49	X50	Y50	Z50	X51	Y51	Z51	

692	6.91000000	-251.79969	496.51537	-442.49981	-251.17104	427.85635	-411.60060	-264.03551	118.46828	-426.53993	-328.84306	93.31812	-467.67885	-171.08833	46.21360	-389.35625	-119.99251	58.31276	-440.51507	-233.40348	495.43731	-787.00209	-210.82588	433.49186	-799.31238	-261.08059	124.60065	-807.36101	-334.23663	102.23492	-762.34878	-181.71229	47.91041	-835.12035	-127.48281	58.80938	-781.49751	-250.58794	317.74276	-397.48204	-320.52155	424.34368	-438.74157	-327.80627	308.69609	-430.57979	-299.17046	445.52166	-811.41976	-300.37770	324.14577	-824.52108	-180.11454	798.58647	-471.06988	-176.62771	687.88363	-449.43394	-228.17934	668.46939	-411.13072	-279.78963	804.01706	-417.96080	-282.50119	687.02472	-416.89899	-170.98140	777.77176	-788.81482	-166.43252	639.39676	-788.58949	-286.19742	775.62101	-811.55245	-273.40048	635.02051	-807.71861	-184.81355	942.54624	-489.86825	-358.81519	979.22301	-571.42721	-167.40030	939.39451	-743.16904	-353.68688	976.34790	-679.31984	-181.81562	1422.13473	-604.28136	-153.19751	1368.14310	-455.64362	-134.73292	1376.93422	-764.60833	-78.67594	1327.87384	-586.31075	-75.83488	1327.03617	-631.15654	-286.59572	1182.17249	-373.97468	-359.30239	1100.85379	-437.69474	-347.19577	1120.92791	-361.77462	-269.59153	1024.70265	-354.22924	-202.06895	933.78628	-363.70609	-236.84144	907.49998	-355.43641	-164.97893	1262.17238	-834.81190	-315.99232	1094.39021	-797.45942	-314.48015	1110.83252	-867.31666	-221.23044	1037.84490	-875.62691	-136.66979	955.24457	-852.96107	-158.69459	925.63237	-859.63627	-255.54989	874.33130	-519.55501	-239.82594	874.79292	-719.22954	-251.77954	869.81618	-526.99153	-243.82526	865.35699	-694.32751	
693	6.92000000	-250.28909	496.05430	-441.56039	-250.08743	427.34836	-410.86747	-264.33456	117.88025	-425.98100	-329.08932	92.41885	-467.10930	-171.20301	45.82126	-389.12410	-120.21126	58.13999	-440.36635	-233.43951	494.78697	-786.30427	-210.88523	432.97215	-798.71209	-261.34422	124.11241	-807.43737	-334.52177	101.39419	-762.37148	-181.88119	47.59797	-835.11737	-127.67146	58.70033	-781.47381	-250.01500	317.35551	-396.50022	-319.20262	424.08843	-437.86658	-327.05222	308.52527	-430.04726	-299.16226	445.12735	-811.15191	-300.43032	323.59466	-824.14055	-177.28800	798.38970	-469.65734	-174.20237	687.61679	-447.87419	-226.28999	668.51394	-409.98189	-277.58823	804.08670	-417.60937	-280.50182	686.91264	-416.87468	-168.20181	776.75617	-788.76703	-164.87703	638.26063	-788.83258	-283.33925	775.46681	-811.42603	-271.98065	634.83307	-807.11167	-181.88154	942.43237	-489.14202	-356.02987	977.62699	-571.92741	-163.54416	938.86386	-742.42709	-350.50083	974.53464	-679.82933	-184.91724	1422.60763	-604.11255	-155.94951	1368.51411	-455.41052	-137.22054	1377.57421	-764.59118	-80.68466	1329.21679	-586.19551	-77.80204	1328.39352	-630.91853	-287.58331	1181.54354	-373.67403	-359.75876	1099.48156	-437.00913	-347.74770	1119.96277	-361.26205	-268.97559	1024.89641	-353.38817	-200.28913	934.90188	-362.44796	-234.61764	908.24451	-353.97015	-165.92949	1262.14581	-834.40659	-314.91101	1092.53605	-796.81833	-313.80014	1108.94567	-866.62935	-219.38210	1037.65403	-875.33429	-133.37093	956.43547	-852.65879	-154.89249	926.43400	-859.46005	-252.19188	873.65208	-519.17875	-235.51162	873.74383	-718.77541	-248.20942	869.12902	-526.33565	-239.63560	864.33376	-693.66977	
694	6.93000000	-248.44324	495.47396	-440.74622	-248.31244	426.67871	-410.11205	-264.59032	117.20399	-425.34281	-329.50621	91.44261	-466.44911	-171.30603	45.46164	-388.81814	-120.42983	58.03719	-440.25754	-232.99359	493.80622	-785.81053	-210.52410	432.23190	-798.33898	-261.73736	123.33990	-807.26311	-334.87922	100.32661	-762.60455	-182.08112	47.24947	-835.26079	-127.91127	58.62443	-781.53492	-248.81657	316.63202	-395.73814	-317.54905	423.73277	-436.77398	-325.97865	308.25878	-429.04521	-298.71474	444.54610	-811.15867	-299.87803	322.95868	-824.23077	-174.82773	798.17447	-468.17664	-171.76960	687.25599	-446.36512	-224.54301	668.47246	-408.87766	-275.86185	803.78362	-417.37832	-278.66035	686.62645	-416.62767	-165.68464	775.60465	-788.81196	-163.24577	637.10688	-789.13741	-280.83745	774.96251	-811.31064	-270.52902	634.33141	-806.70463	-179.45529	942.11520	-488.34227	-353.59213	975.83377	-572.62627	-160.01796	937.79880	-741.52015	-347.66590	972.51642	-680.54273	-187.70727	1422.53268	-603.87446	-158.47393	1368.44246	-455.23829	-139.37509	1377.61549	-764.46627	-82.44916	1329.86059	-586.01436	-79.53639	1329.12143	-630.61599	-288.42182	1180.35962	-373.34828	-360.00026	1097.60303	-436.41391	-348.14925	1118.49253	-360.70659	-268.24763	1024.61419	-352.52936	-198.24049	935.68395	-360.99728	-232.22305	908.53759	-352.43440	-166.59882	1261.56638	-834.00500	-313.63639	1090.20944	-796.24200	-312.82591	1106.70368	-866.00991	-217.30732	1036.88697	-875.01425	-130.02840	957.28034	-852.52395	-151.08943	926.83633	-859.46767	-249.41834	872.79544	-518.73558	-231.57029	872.27810	-718.22968	-245.06769	868.12497	-525.57290	-235.88126	862.98255	-692.85609	
695	6.94000000	-246.37228	494.74732	-440.22292	-246.02125	425.83574	-409.43779	-264.88782	116.40376	-424.81547	-330.11508	90.45140	-465.75214	-171.42387	45.16836	-388.42358	-120.66437	57.99991	-440.16036	-232.13433	492.74013	-785.75552	-209.80892	431.22348	-798.14002	-262.13228	122.56324	-807.42719	-335.56307	99.05352	-762.66541	-182.30123	46.89574	-835.52526	-128.21449	58.55556	-781.64799	-247.35503	315.63745	-395.27171	-315.60959	423.37874	-435.71818	-324.71602	307.94493	-427.71011	-297.90716	443.80969	-811.31059	-299.25084	322.23460	-824.54770	-172.64493	798.09385	-466.70703	-169.52122	686.93431	-444.88001	-222.89455	668.10791	-407.97869	-274.60393	803.21413	-417.29991	-276.98278	686.19394	-416.27242	-163.44435	774.36883	-788.93800	-161.59357	635.91915	-789.45137	-278.70796	774.24620	-811.10694	-268.99375	633.54602	-806.51955	-177.48438	941.61158	-487.46625	-351.53615	973.79525	-573.40946	-156.75026	936.34750	-740.77282	-345.19851	970.24504	-681.35850	-190.17159	1422.13956	-603.74101	-160.57144	1368.18776	-454.76861	-141.06963	1377.23101	-764.25515	-84.02898	1329.90862	-585.72847	-81.11583	1329.27403	-630.13388	-289.04519	1178.72072	-373.04666	-360.02035	1095.33048	-436.03906	-348.43079	1116.63915	-360.25293	-267.39828	1023.98524	-351.46398	-195.95506	936.06847	-359.43569	-229.65968	908.51561	-350.70241	-166.92330	1260.49629	-833.49490	-312.11665	1087.51619	-795.87272	-311.53317	1104.24554	-865.56041	-215.10127	1035.75288	-874.66290	-126.68515	957.60764	-852.56960	-147.35095	926.84059	-859.59705	-247.07707	871.73292	-518.30511	-227.97859	870.48550	-717.68072	-242.30715	866.75931	-524.76358	-232.47876	861.25377	-692.16212	
